<?xml version="1.0" encoding="utf-8"?>
<!-- Generator: Adobe Illustrator 16.0.0, SVG Export Plug-In . SVG Version: 6.00 Build 0)  -->
<!DOCTYPE svg PUBLIC "-//W3C//DTD SVG 1.1//EN" "http://www.w3.org/Graphics/SVG/1.1/DTD/svg11.dtd">
<svg version="1.1" id="Layer_1" xmlns="http://www.w3.org/2000/svg" xmlns:xlink="http://www.w3.org/1999/xlink" x="0px" y="0px"
	 width="208.835px" height="44.965px" viewBox="0 0 208.835 44.965" enable-background="new 0 0 208.835 44.965"
	 xml:space="preserve">
<path d="M79.821,15.416c-0.53-0.272-1.144-0.554-1.838-0.846s-1.442-0.539-2.245-0.742c-0.801-0.203-1.629-0.309-2.482-0.318
	c-0.871,0.001-1.697,0.128-2.479,0.382c-0.781,0.254-1.477,0.631-2.085,1.131c-0.609,0.5-1.088,1.119-1.438,1.859
	c-0.349,0.739-0.528,1.594-0.535,2.566c-0.002,0.852,0.152,1.581,0.465,2.189c0.313,0.606,0.797,1.129,1.452,1.567
	c0.656,0.438,1.496,0.826,2.521,1.166c0.709,0.229,1.358,0.432,1.945,0.6c0.589,0.171,1.06,0.354,1.414,0.558
	c0.354,0.201,0.536,0.469,0.545,0.799c0.006,0.236-0.099,0.424-0.315,0.56c-0.217,0.136-0.581,0.205-1.094,0.207
	c-0.681-0.011-1.353-0.11-2.016-0.302c-0.661-0.191-1.264-0.413-1.808-0.664c-0.542-0.25-0.977-0.472-1.304-0.663
	c-0.325-0.19-0.492-0.291-0.5-0.301l-2.072,4.229c0.707,0.414,1.488,0.774,2.342,1.082c0.856,0.308,1.736,0.545,2.641,0.713
	c0.904,0.17,1.785,0.256,2.642,0.258c0.824,0.005,1.629-0.09,2.416-0.278c0.787-0.19,1.499-0.5,2.137-0.931
	c0.639-0.432,1.148-1.006,1.526-1.723c0.38-0.72,0.575-1.604,0.584-2.658c-0.002-0.817-0.126-1.517-0.371-2.097
	c-0.245-0.579-0.597-1.073-1.057-1.479c-0.461-0.405-1.015-0.756-1.664-1.052c-0.648-0.295-1.377-0.566-2.188-0.815
	c-0.679-0.208-1.261-0.386-1.747-0.539c-0.486-0.151-0.86-0.317-1.121-0.499c-0.261-0.182-0.393-0.422-0.396-0.719
	c0.007-0.308,0.136-0.529,0.389-0.666c0.253-0.136,0.593-0.203,1.02-0.201c0.533,0.008,1.07,0.092,1.612,0.251
	c0.541,0.159,1.04,0.343,1.497,0.552c0.456,0.21,0.824,0.395,1.103,0.553c0.278,0.159,0.422,0.244,0.431,0.251L79.821,15.416
	L79.821,15.416z"/>
<path d="M89.289,31.223V25.83h2.859c0.867-0.008,1.653-0.18,2.359-0.514s1.313-0.787,1.823-1.36c0.508-0.573,0.9-1.221,1.174-1.944
	c0.274-0.724,0.413-1.479,0.416-2.267c-0.004-0.756-0.149-1.494-0.438-2.213c-0.29-0.719-0.697-1.37-1.224-1.951
	c-0.526-0.582-1.148-1.045-1.865-1.39c-0.717-0.345-1.506-0.521-2.368-0.529h-7.549v17.561H89.289L89.289,31.223z M89.289,17.863
	h2.416c0.203-0.004,0.405,0.051,0.608,0.163c0.204,0.114,0.373,0.308,0.511,0.582c0.137,0.275,0.208,0.655,0.213,1.137
	c-0.004,0.468-0.064,0.839-0.181,1.115s-0.268,0.474-0.451,0.593c-0.183,0.119-0.375,0.176-0.576,0.174h-2.54V17.863L89.289,17.863z
	"/>
<path d="M99.126,31.223h4.91l1.038-3.441h4.663l1.062,3.441h4.885l-6.069-17.561h-4.392L99.126,31.223L99.126,31.223z
	 M105.787,24.568l1.629-5.44l1.556,5.44H105.787L105.787,24.568z"/>
<path d="M117.574,22.297c0.002,0.905,0.143,1.796,0.418,2.671c0.275,0.876,0.674,1.697,1.188,2.468
	c0.519,0.771,1.138,1.448,1.86,2.039c0.725,0.588,1.537,1.051,2.434,1.387c0.898,0.336,1.867,0.507,2.906,0.512
	c0.754,0,1.516-0.092,2.285-0.271c0.771-0.182,1.502-0.444,2.196-0.795c0.692-0.349,1.304-0.775,1.828-1.281
	c0.526-0.504,0.923-1.082,1.19-1.732l-3.924-2.35c-0.205,0.524-0.496,0.945-0.875,1.262c-0.377,0.314-0.795,0.544-1.252,0.686
	c-0.457,0.139-0.908,0.207-1.353,0.204c-0.631-0.005-1.194-0.132-1.69-0.382s-0.916-0.591-1.264-1.023
	c-0.348-0.435-0.611-0.928-0.793-1.482c-0.182-0.557-0.273-1.145-0.273-1.76c-0.002-0.557,0.074-1.106,0.23-1.647
	s0.395-1.033,0.719-1.478c0.322-0.444,0.734-0.798,1.235-1.064c0.502-0.266,1.097-0.402,1.787-0.41
	c0.442-0.004,0.899,0.058,1.366,0.186c0.468,0.128,0.898,0.351,1.295,0.668c0.397,0.318,0.711,0.759,0.939,1.322l3.678-2.621
	c-0.406-0.771-0.959-1.443-1.653-2.017c-0.694-0.574-1.509-1.017-2.442-1.335c-0.934-0.317-1.962-0.479-3.084-0.482
	c-1.127,0.006-2.156,0.172-3.092,0.497c-0.936,0.326-1.766,0.774-2.491,1.344c-0.726,0.571-1.34,1.226-1.84,1.967
	c-0.503,0.742-0.883,1.532-1.142,2.371C117.705,20.584,117.574,21.435,117.574,22.297L117.574,22.297z"/>
<polygon points="142.505,27.02 142.505,24.248 148.871,24.248 148.871,20.34 142.505,20.34 142.505,17.863 149.955,17.863 
	149.955,13.662 137.692,13.662 137.692,31.223 150.178,31.223 150.178,27.02 "/>
<path d="M169.438,26.72c-0.004-0.813-0.138-1.522-0.399-2.122c-0.265-0.602-0.64-1.099-1.125-1.492
	c-0.485-0.395-1.063-0.689-1.731-0.887c0.56-0.254,1.022-0.593,1.396-1.02c0.373-0.425,0.652-0.899,0.84-1.425
	c0.187-0.524,0.277-1.063,0.277-1.612c-0.001-0.563-0.093-1.11-0.277-1.643c-0.184-0.532-0.446-1.013-0.795-1.443
	c-0.347-0.429-0.767-0.771-1.258-1.025c-0.492-0.254-1.048-0.385-1.666-0.39h-10.164v17.56h8.609
	c0.869,0.002,1.684-0.084,2.439-0.258c0.76-0.173,1.426-0.441,2.004-0.805c0.576-0.365,1.025-0.83,1.353-1.399
	S169.431,27.51,169.438,26.72L169.438,26.72z M164.553,25.73c-0.011,0.461-0.146,0.813-0.408,1.061
	c-0.261,0.247-0.595,0.372-0.998,0.374h-3.8v-2.942h3.972c0.364,0.01,0.66,0.152,0.886,0.43
	C164.429,24.93,164.544,25.289,164.553,25.73L164.553,25.73z M162.775,17.767c0.316-0.005,0.587,0.098,0.811,0.306
	c0.222,0.208,0.336,0.552,0.348,1.029c-0.005,0.359-0.07,0.637-0.197,0.835c-0.126,0.199-0.287,0.337-0.486,0.413
	c-0.196,0.078-0.404,0.115-0.623,0.111h-3.278v-2.694H162.775L162.775,17.767z"/>
<path d="M181.559,31.372c1.05-0.005,2.028-0.164,2.938-0.479c0.908-0.313,1.73-0.752,2.465-1.313s1.365-1.213,1.892-1.958
	s0.929-1.55,1.21-2.416c0.281-0.867,0.424-1.763,0.428-2.688c-0.002-0.901-0.139-1.784-0.406-2.649
	c-0.271-0.866-0.66-1.677-1.168-2.437c-0.508-0.758-1.125-1.426-1.848-2.005c-0.723-0.58-1.537-1.033-2.445-1.362
	c-0.91-0.327-1.896-0.495-2.965-0.501c-1.309,0.009-2.507,0.252-3.596,0.729c-1.091,0.477-2.036,1.128-2.834,1.954
	c-0.802,0.826-1.42,1.768-1.859,2.825c-0.438,1.059-0.66,2.173-0.666,3.345c0.002,0.912,0.14,1.801,0.412,2.67
	c0.271,0.868,0.664,1.681,1.178,2.438c0.514,0.756,1.131,1.422,1.856,1.998s1.542,1.025,2.451,1.353
	C179.509,31.201,180.496,31.367,181.559,31.372L181.559,31.372z M177.585,22.469c0-0.581,0.078-1.145,0.236-1.692
	c0.158-0.548,0.4-1.041,0.727-1.482s0.74-0.792,1.244-1.051c0.504-0.259,1.102-0.393,1.791-0.399
	c0.679,0.007,1.269,0.132,1.773,0.381c0.504,0.249,0.922,0.588,1.254,1.017c0.334,0.428,0.582,0.916,0.747,1.46
	c0.164,0.545,0.246,1.118,0.246,1.716c0.002,0.582-0.075,1.147-0.231,1.7c-0.156,0.554-0.396,1.054-0.722,1.5
	c-0.323,0.445-0.737,0.802-1.241,1.066c-0.506,0.266-1.105,0.4-1.802,0.406c-0.685-0.005-1.278-0.136-1.784-0.392
	c-0.505-0.257-0.924-0.603-1.254-1.039c-0.331-0.438-0.576-0.931-0.74-1.479C177.667,23.633,177.585,23.063,177.585,22.469
	L177.585,22.469z"/>
<polygon points="192.082,13.662 197.93,22.565 192.278,31.223 197.485,31.223 200.471,25.93 203.457,31.223 208.638,31.223 
	202.987,22.565 208.835,13.662 203.653,13.662 200.471,19.201 197.289,13.662 "/>
<path fill="#FF0000" d="M13.84,31.161c2.227,0.565,4.031-0.875,4.031-3.249c0-2.344-1.805-4.743-4.031-5.307
	c-2.225-0.565-4.028,0.9-4.028,3.247C9.812,28.227,11.615,30.596,13.84,31.161L13.84,31.161L13.84,31.161z"/>
<path d="M39.91,32.338c-1.689,1.27-6.984,4.729-10.713,7.146c0,0-2.35,1.314-3.673,1.898c0.01-4.788,0.029-16.703-0.004-19.388
	c-0.009-0.61-0.168-1.108-0.382-1.553l16.244-9.739c0.089,0.229,0.156,0.473,0.156,0.752c0,4.023-0.009,17.107-0.009,17.107
	l0.007,0.133C41.538,28.72,41.679,31,39.91,32.338L39.91,32.338z M23.121,41.384L4.924,34.666c-1.02-0.372-1.842-1.5-1.842-2.518
	V12.746c0-0.349,0.109-0.624,0.274-0.841c2.321,0.924,7.365,2.792,18.434,6.871c0.028,0.006,2.926,0.669,2.959,3.231
	c0.033,2.728,0.013,15.05,0.005,19.649C24.109,41.761,23.338,41.464,23.121,41.384L23.121,41.384z M19.384,3.699
	c0.025-0.012,2.637-1.235,5.315-0.185c3.845,1.509,14.434,5.35,14.587,5.406c0.063,0.019,1.045,0.369,1.691,1.125l-16.238,9.736
	c-1.032-1.329-2.724-1.747-2.734-1.747c-5.787-2.133-13.779-5.1-17.7-6.591C4.675,11.354,19.384,3.699,19.384,3.699L19.384,3.699z
	 M44.619,11.456c0-3.221-2.761-4.957-4.334-5.458C40.179,5.961,29.632,2.133,25.822,0.64c-3.971-1.558-7.637,0.208-7.789,0.283
	L2.476,8.752C0.989,9.425,0,10.919,0,12.746v19.402c0,2.314,1.625,4.596,3.863,5.416l19.355,7.096
	c0.557,0.205,1.125,0.305,1.687,0.305c0.723,0,1.389-0.166,1.977-0.463c0,0,12.1-7.602,14.876-9.697
	c2.933-2.207,2.885-5.686,2.852-6.287C44.612,27.661,44.619,15.337,44.619,11.456L44.619,11.456L44.619,11.456z"/>
</svg>
